<svg xmlns="http://www.w3.org/2000/svg" width="420" height="522">
<style> text { font-family: monospace; font-size: 14px; } </style>
<rect width="100%" height="100%" fill="white"/>
<rect x="270" y="90" width="30" height="30" fill="red" fill-opacity="0.35" stroke="black"/>
<rect x="210" y="210" width="30" height="30" fill="red" fill-opacity="0.35" stroke="black"/>
<rect x="240" y="210" width="30" height="30" fill="red" fill-opacity="0.35" stroke="black"/>
<rect x="150" y="300" width="30" height="30" fill="red" fill-opacity="0.35" stroke="black"/>
<rect x="210" y="90" width="30" height="30" fill="green" fill-opacity="0.35" stroke="black"/>
<rect x="150" y="150" width="30" height="30" fill="green" fill-opacity="0.35" stroke="black"/>
<rect x="150" y="240" width="30" height="30" fill="green" fill-opacity="0.35" stroke="black"/>
<rect x="240" y="300" width="30" height="30" fill="green" fill-opacity="0.35" stroke="black"/>
<rect x="60" y="330" width="30" height="30" fill="green" fill-opacity="0.35" stroke="black"/>
<rect x="300" y="120" width="30" height="30" fill="blue" fill-opacity="0.35" stroke="black"/>
<rect x="120" y="150" width="30" height="30" fill="blue" fill-opacity="0.35" stroke="black"/>
<rect x="270" y="180" width="30" height="30" fill="blue" fill-opacity="0.35" stroke="black"/>
<rect x="60" y="270" width="30" height="30" fill="blue" fill-opacity="0.35" stroke="black"/>
<rect x="270" y="60" width="30" height="30" fill="orange" fill-opacity="0.35" stroke="black"/>
<rect x="180" y="90" width="30" height="30" fill="orange" fill-opacity="0.35" stroke="black"/>
<rect x="300" y="150" width="30" height="30" fill="orange" fill-opacity="0.35" stroke="black"/>
<rect x="270" y="210" width="30" height="30" fill="orange" fill-opacity="0.35" stroke="black"/>
<rect x="150" y="270" width="30" height="30" fill="orange" fill-opacity="0.35" stroke="black"/>
<rect x="240" y="270" width="30" height="30" fill="orange" fill-opacity="0.35" stroke="black"/>
<rect x="180" y="300" width="30" height="30" fill="orange" fill-opacity="0.35" stroke="black"/>
<rect x="270" y="330" width="30" height="30" fill="orange" fill-opacity="0.35" stroke="black"/>
<rect x="210" y="120" width="30" height="30" fill="purple" fill-opacity="0.35" stroke="black"/>
<rect x="180" y="150" width="30" height="30" fill="purple" fill-opacity="0.35" stroke="black"/>
<rect x="180" y="240" width="30" height="30" fill="purple" fill-opacity="0.35" stroke="black"/>
<rect x="60" y="210" width="30" height="30" fill="cyan" fill-opacity="0.35" stroke="black"/>
<rect x="300" y="210" width="30" height="30" fill="cyan" fill-opacity="0.35" stroke="black"/>
<rect x="210" y="240" width="30" height="30" fill="cyan" fill-opacity="0.35" stroke="black"/>
<rect x="270" y="270" width="30" height="30" fill="cyan" fill-opacity="0.35" stroke="black"/>
<rect x="330" y="270" width="30" height="30" fill="cyan" fill-opacity="0.35" stroke="black"/>
<text x="75.0" y="75.0" text-anchor="middle" dominant-baseline="middle">Ö</text>
<text x="105.0" y="75.0" text-anchor="middle" dominant-baseline="middle">E</text>
<text x="135.0" y="75.0" text-anchor="middle" dominant-baseline="middle">N</text>
<text x="165.0" y="75.0" text-anchor="middle" dominant-baseline="middle">N</text>
<text x="195.0" y="75.0" text-anchor="middle" dominant-baseline="middle">H</text>
<text x="225.0" y="75.0" text-anchor="middle" dominant-baseline="middle">W</text>
<text x="255.0" y="75.0" text-anchor="middle" dominant-baseline="middle">R</text>
<text x="285.0" y="75.0" text-anchor="middle" dominant-baseline="middle">M</text>
<text x="315.0" y="75.0" text-anchor="middle" dominant-baseline="middle">F</text>
<text x="345.0" y="75.0" text-anchor="middle" dominant-baseline="middle">R</text>
<text x="75.0" y="105.0" text-anchor="middle" dominant-baseline="middle">S</text>
<text x="105.0" y="105.0" text-anchor="middle" dominant-baseline="middle">S</text>
<text x="135.0" y="105.0" text-anchor="middle" dominant-baseline="middle">E</text>
<text x="165.0" y="105.0" text-anchor="middle" dominant-baseline="middle">Q</text>
<text x="195.0" y="105.0" text-anchor="middle" dominant-baseline="middle">O</text>
<text x="225.0" y="105.0" text-anchor="middle" dominant-baseline="middle">S</text>
<text x="255.0" y="105.0" text-anchor="middle" dominant-baseline="middle">A</text>
<text x="285.0" y="105.0" text-anchor="middle" dominant-baseline="middle">R</text>
<text x="315.0" y="105.0" text-anchor="middle" dominant-baseline="middle">U</text>
<text x="345.0" y="105.0" text-anchor="middle" dominant-baseline="middle">U</text>
<text x="75.0" y="135.0" text-anchor="middle" dominant-baseline="middle">Z</text>
<text x="105.0" y="135.0" text-anchor="middle" dominant-baseline="middle">T</text>
<text x="135.0" y="135.0" text-anchor="middle" dominant-baseline="middle">Ö</text>
<text x="165.0" y="135.0" text-anchor="middle" dominant-baseline="middle">D</text>
<text x="195.0" y="135.0" text-anchor="middle" dominant-baseline="middle">X</text>
<text x="225.0" y="135.0" text-anchor="middle" dominant-baseline="middle">E</text>
<text x="255.0" y="135.0" text-anchor="middle" dominant-baseline="middle">I</text>
<text x="285.0" y="135.0" text-anchor="middle" dominant-baseline="middle">Ä</text>
<text x="315.0" y="135.0" text-anchor="middle" dominant-baseline="middle">P</text>
<text x="345.0" y="135.0" text-anchor="middle" dominant-baseline="middle">Ü</text>
<text x="75.0" y="165.0" text-anchor="middle" dominant-baseline="middle">A</text>
<text x="105.0" y="165.0" text-anchor="middle" dominant-baseline="middle">M</text>
<text x="135.0" y="165.0" text-anchor="middle" dominant-baseline="middle">O</text>
<text x="165.0" y="165.0" text-anchor="middle" dominant-baseline="middle">W</text>
<text x="195.0" y="165.0" text-anchor="middle" dominant-baseline="middle">Y</text>
<text x="225.0" y="165.0" text-anchor="middle" dominant-baseline="middle">Ü</text>
<text x="255.0" y="165.0" text-anchor="middle" dominant-baseline="middle">Ä</text>
<text x="285.0" y="165.0" text-anchor="middle" dominant-baseline="middle">C</text>
<text x="315.0" y="165.0" text-anchor="middle" dominant-baseline="middle">U</text>
<text x="345.0" y="165.0" text-anchor="middle" dominant-baseline="middle">I</text>
<text x="75.0" y="195.0" text-anchor="middle" dominant-baseline="middle">P</text>
<text x="105.0" y="195.0" text-anchor="middle" dominant-baseline="middle">J</text>
<text x="135.0" y="195.0" text-anchor="middle" dominant-baseline="middle">Y</text>
<text x="165.0" y="195.0" text-anchor="middle" dominant-baseline="middle">V</text>
<text x="195.0" y="195.0" text-anchor="middle" dominant-baseline="middle">A</text>
<text x="225.0" y="195.0" text-anchor="middle" dominant-baseline="middle">O</text>
<text x="255.0" y="195.0" text-anchor="middle" dominant-baseline="middle">D</text>
<text x="285.0" y="195.0" text-anchor="middle" dominant-baseline="middle">N</text>
<text x="315.0" y="195.0" text-anchor="middle" dominant-baseline="middle">Ö</text>
<text x="345.0" y="195.0" text-anchor="middle" dominant-baseline="middle">U</text>
<text x="75.0" y="225.0" text-anchor="middle" dominant-baseline="middle">W</text>
<text x="105.0" y="225.0" text-anchor="middle" dominant-baseline="middle">X</text>
<text x="135.0" y="225.0" text-anchor="middle" dominant-baseline="middle">M</text>
<text x="165.0" y="225.0" text-anchor="middle" dominant-baseline="middle">ß</text>
<text x="195.0" y="225.0" text-anchor="middle" dominant-baseline="middle">Ö</text>
<text x="225.0" y="225.0" text-anchor="middle" dominant-baseline="middle">I</text>
<text x="255.0" y="225.0" text-anchor="middle" dominant-baseline="middle">N</text>
<text x="285.0" y="225.0" text-anchor="middle" dominant-baseline="middle">N</text>
<text x="315.0" y="225.0" text-anchor="middle" dominant-baseline="middle">H</text>
<text x="345.0" y="225.0" text-anchor="middle" dominant-baseline="middle">Ä</text>
<text x="75.0" y="255.0" text-anchor="middle" dominant-baseline="middle">U</text>
<text x="105.0" y="255.0" text-anchor="middle" dominant-baseline="middle">H</text>
<text x="135.0" y="255.0" text-anchor="middle" dominant-baseline="middle">X</text>
<text x="165.0" y="255.0" text-anchor="middle" dominant-baseline="middle">O</text>
<text x="195.0" y="255.0" text-anchor="middle" dominant-baseline="middle">E</text>
<text x="225.0" y="255.0" text-anchor="middle" dominant-baseline="middle">I</text>
<text x="255.0" y="255.0" text-anchor="middle" dominant-baseline="middle">T</text>
<text x="285.0" y="255.0" text-anchor="middle" dominant-baseline="middle">G</text>
<text x="315.0" y="255.0" text-anchor="middle" dominant-baseline="middle">Ü</text>
<text x="345.0" y="255.0" text-anchor="middle" dominant-baseline="middle">Q</text>
<text x="75.0" y="285.0" text-anchor="middle" dominant-baseline="middle">Y</text>
<text x="105.0" y="285.0" text-anchor="middle" dominant-baseline="middle">R</text>
<text x="135.0" y="285.0" text-anchor="middle" dominant-baseline="middle">F</text>
<text x="165.0" y="285.0" text-anchor="middle" dominant-baseline="middle">T</text>
<text x="195.0" y="285.0" text-anchor="middle" dominant-baseline="middle">ß</text>
<text x="225.0" y="285.0" text-anchor="middle" dominant-baseline="middle">J</text>
<text x="255.0" y="285.0" text-anchor="middle" dominant-baseline="middle">A</text>
<text x="285.0" y="285.0" text-anchor="middle" dominant-baseline="middle">T</text>
<text x="315.0" y="285.0" text-anchor="middle" dominant-baseline="middle">L</text>
<text x="345.0" y="285.0" text-anchor="middle" dominant-baseline="middle">E</text>
<text x="75.0" y="315.0" text-anchor="middle" dominant-baseline="middle">E</text>
<text x="105.0" y="315.0" text-anchor="middle" dominant-baseline="middle">V</text>
<text x="135.0" y="315.0" text-anchor="middle" dominant-baseline="middle">Q</text>
<text x="165.0" y="315.0" text-anchor="middle" dominant-baseline="middle">G</text>
<text x="195.0" y="315.0" text-anchor="middle" dominant-baseline="middle">I</text>
<text x="225.0" y="315.0" text-anchor="middle" dominant-baseline="middle">A</text>
<text x="255.0" y="315.0" text-anchor="middle" dominant-baseline="middle">R</text>
<text x="285.0" y="315.0" text-anchor="middle" dominant-baseline="middle">S</text>
<text x="315.0" y="315.0" text-anchor="middle" dominant-baseline="middle">R</text>
<text x="345.0" y="315.0" text-anchor="middle" dominant-baseline="middle">Y</text>
<text x="75.0" y="345.0" text-anchor="middle" dominant-baseline="middle">D</text>
<text x="105.0" y="345.0" text-anchor="middle" dominant-baseline="middle">I</text>
<text x="135.0" y="345.0" text-anchor="middle" dominant-baseline="middle">K</text>
<text x="165.0" y="345.0" text-anchor="middle" dominant-baseline="middle">D</text>
<text x="195.0" y="345.0" text-anchor="middle" dominant-baseline="middle">M</text>
<text x="225.0" y="345.0" text-anchor="middle" dominant-baseline="middle">M</text>
<text x="255.0" y="345.0" text-anchor="middle" dominant-baseline="middle">R</text>
<text x="285.0" y="345.0" text-anchor="middle" dominant-baseline="middle">N</text>
<text x="315.0" y="345.0" text-anchor="middle" dominant-baseline="middle">J</text>
<text x="345.0" y="345.0" text-anchor="middle" dominant-baseline="middle">V</text>
<rect x="272" y="92" width="26" height="26" fill="none" stroke="red" stroke-width="2"/>
<rect x="212" y="212" width="26" height="26" fill="none" stroke="red" stroke-width="2"/>
<rect x="242" y="212" width="26" height="26" fill="none" stroke="red" stroke-width="2"/>
<rect x="152" y="302" width="26" height="26" fill="none" stroke="red" stroke-width="2"/>
<rect x="212" y="92" width="26" height="26" fill="none" stroke="green" stroke-width="2"/>
<rect x="152" y="152" width="26" height="26" fill="none" stroke="green" stroke-width="2"/>
<rect x="152" y="242" width="26" height="26" fill="none" stroke="green" stroke-width="2"/>
<rect x="242" y="302" width="26" height="26" fill="none" stroke="green" stroke-width="2"/>
<rect x="62" y="332" width="26" height="26" fill="none" stroke="green" stroke-width="2"/>
<rect x="302" y="122" width="26" height="26" fill="none" stroke="blue" stroke-width="2"/>
<rect x="122" y="152" width="26" height="26" fill="none" stroke="blue" stroke-width="2"/>
<rect x="272" y="182" width="26" height="26" fill="none" stroke="blue" stroke-width="2"/>
<rect x="62" y="272" width="26" height="26" fill="none" stroke="blue" stroke-width="2"/>
<rect x="272" y="62" width="26" height="26" fill="none" stroke="orange" stroke-width="2"/>
<rect x="182" y="92" width="26" height="26" fill="none" stroke="orange" stroke-width="2"/>
<rect x="302" y="152" width="26" height="26" fill="none" stroke="orange" stroke-width="2"/>
<rect x="272" y="212" width="26" height="26" fill="none" stroke="orange" stroke-width="2"/>
<rect x="152" y="272" width="26" height="26" fill="none" stroke="orange" stroke-width="2"/>
<rect x="242" y="272" width="26" height="26" fill="none" stroke="orange" stroke-width="2"/>
<rect x="182" y="302" width="26" height="26" fill="none" stroke="orange" stroke-width="2"/>
<rect x="272" y="332" width="26" height="26" fill="none" stroke="orange" stroke-width="2"/>
<rect x="212" y="122" width="26" height="26" fill="none" stroke="purple" stroke-width="2"/>
<rect x="182" y="152" width="26" height="26" fill="none" stroke="purple" stroke-width="2"/>
<rect x="182" y="242" width="26" height="26" fill="none" stroke="purple" stroke-width="2"/>
<rect x="62" y="212" width="26" height="26" fill="none" stroke="cyan" stroke-width="2"/>
<rect x="302" y="212" width="26" height="26" fill="none" stroke="cyan" stroke-width="2"/>
<rect x="212" y="242" width="26" height="26" fill="none" stroke="cyan" stroke-width="2"/>
<rect x="272" y="272" width="26" height="26" fill="none" stroke="cyan" stroke-width="2"/>
<rect x="332" y="272" width="26" height="26" fill="none" stroke="cyan" stroke-width="2"/>
<g font-size="12" font-family="monospace">
<rect x="65" y="372.0" width="12" height="12" fill="red" fill-opacity="0.6" stroke="black"/>
<text x="83" y="378" dominant-baseline="middle">RING: 4 cells</text>
<rect x="65" y="388.0" width="12" height="12" fill="green" fill-opacity="0.6" stroke="black"/>
<text x="83" y="394" dominant-baseline="middle">SWORD: 5 cells</text>
<rect x="65" y="404.0" width="12" height="12" fill="blue" fill-opacity="0.6" stroke="black"/>
<text x="83" y="410" dominant-baseline="middle">PONY: 4 cells</text>
<rect x="65" y="420.0" width="12" height="12" fill="orange" fill-opacity="0.6" stroke="black"/>
<text x="83" y="426" dominant-baseline="middle">MOUNTAIN: 8 cells</text>
<rect x="65" y="436.0" width="12" height="12" fill="purple" fill-opacity="0.6" stroke="black"/>
<text x="83" y="442" dominant-baseline="middle">EYE: 3 cells</text>
<rect x="65" y="452.0" width="12" height="12" fill="cyan" fill-opacity="0.6" stroke="black"/>
<text x="83" y="458" dominant-baseline="middle">WHITE: 5 cells</text>
</g>
</svg>